<svg xmlns="http://www.w3.org/2000/svg" viewBox="0 0 512 512"><defs><linearGradient id="g" x2="1" y2="1"><stop stop-color="#c8ff4a"/><stop offset="1" stop-color="#35d9e7"/></linearGradient></defs><rect width="512" height="512" rx="112" fill="#0b1020"/><circle cx="256" cy="256" r="176" fill="url(#g)"/><path d="M340 340c-22 18-49 28-80 28-76 0-134-50-134-113 0-64 58-113 134-113s134 49 134 113c0 25-9 48-26 67l42 44-39 35zm-80-42c29 0 50-18 50-43s-21-43-50-43-50 18-50 43 21 43 50 43z" fill="#08111d"/></svg>
